{
	"asset":{
		"generator":"Khronos glTF Blender I/O v4.3.47",
		"version":"2.0"
	},
	"scene":0,
	"scenes":[
		{
			"name":"Scene",
			"nodes":[
				9
			]
		}
	],
	"nodes":[
		{
			"name":"reloader",
			"rotation":[
				-3.5527141023169746e-15,
				3.308723239073016e-24,
				-3.308722844642563e-24,
				1
			],
			"scale":[
				0.9999999403953552,
				0.9999999403953552,
				0.9999999403953552
			],
			"translation":[
				1.6202385028259159e-16,
				0.9256025552749634,
				-0.0019473439315333962
			]
		},
		{
			"name":"trigger",
			"rotation":[
				-0.38268333673477173,
				6.008493724052894e-17,
				6.008493062308404e-17,
				0.9238796234130859
			],
			"scale":[
				0.9999999403953552,
				0.9999999403953552,
				0.9999999403953552
			],
			"translation":[
				-7.287965445893586e-17,
				0.2555072605609894,
				-0.08268290758132935
			]
		},
		{
			"name":"hammer",
			"rotation":[
				0.9238796234130859,
				-1.824776205694434e-07,
				-4.405400488849409e-07,
				0.3826833665370941
			],
			"scale":[
				0.9999999403953552,
				0.9999999403953552,
				0.9999998211860657
			],
			"translation":[
				5.165571970167093e-09,
				0.18405042588710785,
				0.1702645719051361
			]
		},
		{
			"children":[
				0,
				1,
				2
			],
			"name":"Main",
			"rotation":[
				-3.5527141023169746e-15,
				3.308723239073016e-24,
				-3.308722844642563e-24,
				1
			],
			"scale":[
				0.9999999403953552,
				0.9999999403953552,
				0.9999999403953552
			],
			"translation":[
				-1.3577766090919023e-16,
				-0.22721005976200104,
				-0.1125914603471756
			]
		},
		{
			"name":"neutral_bone",
			"rotation":[
				-0.7071067690849304,
				0,
				0,
				0.7071067690849304
			]
		},
		{
			"mesh":0,
			"name":"SawnOff_Barrel",
			"skin":0
		},
		{
			"mesh":1,
			"name":"SawnOff_Base",
			"skin":0
		},
		{
			"mesh":2,
			"name":"SawnOff_Hammer",
			"skin":0
		},
		{
			"mesh":3,
			"name":"SawnOff_Trigger",
			"skin":0
		},
		{
			"children":[
				5,
				6,
				7,
				8,
				3,
				4
			],
			"name":"Armature",
			"rotation":[
				-0.7071067690849304,
				0,
				0,
				0.7071068286895752
			],
			"scale":[
				0.18553750216960907,
				0.18553750216960907,
				0.18553750216960907
			]
		}
	],
	"animations":[
		{
			"channels":[
				{
					"sampler":0,
					"target":{
						"node":3,
						"path":"translation"
					}
				},
				{
					"sampler":1,
					"target":{
						"node":3,
						"path":"rotation"
					}
				},
				{
					"sampler":2,
					"target":{
						"node":3,
						"path":"scale"
					}
				},
				{
					"sampler":3,
					"target":{
						"node":0,
						"path":"translation"
					}
				},
				{
					"sampler":4,
					"target":{
						"node":0,
						"path":"rotation"
					}
				},
				{
					"sampler":5,
					"target":{
						"node":0,
						"path":"scale"
					}
				},
				{
					"sampler":6,
					"target":{
						"node":1,
						"path":"translation"
					}
				},
				{
					"sampler":7,
					"target":{
						"node":1,
						"path":"rotation"
					}
				},
				{
					"sampler":8,
					"target":{
						"node":1,
						"path":"scale"
					}
				},
				{
					"sampler":9,
					"target":{
						"node":2,
						"path":"translation"
					}
				},
				{
					"sampler":10,
					"target":{
						"node":2,
						"path":"rotation"
					}
				},
				{
					"sampler":11,
					"target":{
						"node":2,
						"path":"scale"
					}
				}
			],
			"name":"Showcase",
			"samplers":[
				{
					"input":25,
					"interpolation":"STEP",
					"output":26
				},
				{
					"input":25,
					"interpolation":"STEP",
					"output":27
				},
				{
					"input":25,
					"interpolation":"STEP",
					"output":28
				},
				{
					"input":25,
					"interpolation":"STEP",
					"output":29
				},
				{
					"input":30,
					"interpolation":"LINEAR",
					"output":31
				},
				{
					"input":25,
					"interpolation":"STEP",
					"output":32
				},
				{
					"input":25,
					"interpolation":"STEP",
					"output":33
				},
				{
					"input":30,
					"interpolation":"LINEAR",
					"output":34
				},
				{
					"input":25,
					"interpolation":"STEP",
					"output":35
				},
				{
					"input":25,
					"interpolation":"STEP",
					"output":36
				},
				{
					"input":30,
					"interpolation":"LINEAR",
					"output":37
				},
				{
					"input":25,
					"interpolation":"STEP",
					"output":38
				}
			]
		}
	],
	"materials":[
		{
			"doubleSided":true,
			"name":"M_SawnOff",
			"normalTexture":{
				"index":0
			},
			"pbrMetallicRoughness":{
				"baseColorTexture":{
					"index":1
				},
				"metallicRoughnessTexture":{
					"index":2
				}
			}
		}
	],
	"meshes":[
		{
			"name":"Plane.005",
			"primitives":[
				{
					"attributes":{
						"POSITION":0,
						"NORMAL":1,
						"TEXCOORD_0":2,
						"JOINTS_0":3,
						"WEIGHTS_0":4
					},
					"indices":5,
					"material":0
				}
			]
		},
		{
			"name":"Plane.020",
			"primitives":[
				{
					"attributes":{
						"POSITION":7,
						"NORMAL":8,
						"TEXCOORD_0":9,
						"JOINTS_0":10,
						"WEIGHTS_0":11
					},
					"indices":12,
					"material":0
				}
			]
		},
		{
			"name":"Plane.001",
			"primitives":[
				{
					"attributes":{
						"POSITION":13,
						"NORMAL":14,
						"TEXCOORD_0":15,
						"JOINTS_0":16,
						"WEIGHTS_0":17
					},
					"indices":18,
					"material":0
				}
			]
		},
		{
			"name":"Plane.008",
			"primitives":[
				{
					"attributes":{
						"POSITION":19,
						"NORMAL":20,
						"TEXCOORD_0":21,
						"JOINTS_0":22,
						"WEIGHTS_0":23
					},
					"indices":24,
					"material":0
				}
			]
		}
	],
	"textures":[
		{
			"sampler":0,
			"source":0
		},
		{
			"sampler":0,
			"source":1
		},
		{
			"sampler":0,
			"source":2
		}
	],
	"images":[
		{
			"mimeType":"image/png",
			"name":"LP_M_SawnOff_NormalOGL",
			"uri":"LP_M_SawnOff_NormalOGL.png"
		},
		{
			"mimeType":"image/jpeg",
			"name":"LP_M_SawnOff_Colour_comp",
			"uri":"LP_M_SawnOff_Colour_comp.jpg"
		},
		{
			"mimeType":"image/jpeg",
			"name":"ARM_Comp",
			"uri":"ARM_Comp.jpg"
		}
	],
	"skins":[
		{
			"inverseBindMatrices":6,
			"joints":[
				3,
				0,
				1,
				2,
				4
			],
			"name":"Armature"
		}
	],
	"accessors":[
		{
			"bufferView":0,
			"componentType":5126,
			"count":1612,
			"max":[
				0.0374034158885479,
				0.04977281764149666,
				0.024014445021748543
			],
			"min":[
				-0.0374034158885479,
				-0.030497968196868896,
				-0.3588556945323944
			],
			"type":"VEC3"
		},
		{
			"bufferView":1,
			"componentType":5126,
			"count":1612,
			"type":"VEC3"
		},
		{
			"bufferView":2,
			"componentType":5126,
			"count":1612,
			"type":"VEC2"
		},
		{
			"bufferView":3,
			"componentType":5121,
			"count":1612,
			"type":"VEC4"
		},
		{
			"bufferView":4,
			"componentType":5126,
			"count":1612,
			"type":"VEC4"
		},
		{
			"bufferView":5,
			"componentType":5123,
			"count":5604,
			"type":"SCALAR"
		},
		{
			"bufferView":6,
			"componentType":5126,
			"count":5,
			"type":"MAT4"
		},
		{
			"bufferView":7,
			"componentType":5126,
			"count":1122,
			"max":[
				0.029164688661694527,
				0.030409079045057297,
				0.19852179288864136
			],
			"min":[
				-0.029164684936404228,
				-0.12103959172964096,
				-0.13793160021305084
			],
			"type":"VEC3"
		},
		{
			"bufferView":8,
			"componentType":5126,
			"count":1122,
			"type":"VEC3"
		},
		{
			"bufferView":9,
			"componentType":5126,
			"count":1122,
			"type":"VEC2"
		},
		{
			"bufferView":10,
			"componentType":5121,
			"count":1122,
			"type":"VEC4"
		},
		{
			"bufferView":11,
			"componentType":5126,
			"count":1122,
			"type":"VEC4"
		},
		{
			"bufferView":12,
			"componentType":5123,
			"count":4674,
			"type":"SCALAR"
		},
		{
			"bufferView":13,
			"componentType":5126,
			"count":191,
			"max":[
				0.005038631148636341,
				0.03779635578393936,
				0.046045318245887756
			],
			"min":[
				-0.0050386288203299046,
				-0.009261478669941425,
				0.00031816723640076816
			],
			"type":"VEC3"
		},
		{
			"bufferView":14,
			"componentType":5126,
			"count":191,
			"type":"VEC3"
		},
		{
			"bufferView":15,
			"componentType":5126,
			"count":191,
			"type":"VEC2"
		},
		{
			"bufferView":16,
			"componentType":5121,
			"count":191,
			"type":"VEC4"
		},
		{
			"bufferView":17,
			"componentType":5126,
			"count":191,
			"type":"VEC4"
		},
		{
			"bufferView":18,
			"componentType":5123,
			"count":447,
			"type":"SCALAR"
		},
		{
			"bufferView":19,
			"componentType":5126,
			"count":152,
			"max":[
				0.0035914781037718058,
				-0.03353024274110794,
				-0.0012647416442632675
			],
			"min":[
				-0.0035914781037718058,
				-0.0688551664352417,
				-0.033161673694849014
			],
			"type":"VEC3"
		},
		{
			"bufferView":20,
			"componentType":5126,
			"count":152,
			"type":"VEC3"
		},
		{
			"bufferView":21,
			"componentType":5126,
			"count":152,
			"type":"VEC2"
		},
		{
			"bufferView":22,
			"componentType":5121,
			"count":152,
			"type":"VEC4"
		},
		{
			"bufferView":23,
			"componentType":5126,
			"count":152,
			"type":"VEC4"
		},
		{
			"bufferView":24,
			"componentType":5123,
			"count":432,
			"type":"SCALAR"
		},
		{
			"bufferView":25,
			"componentType":5126,
			"count":2,
			"max":[
				2.1666666666666665
			],
			"min":[
				0.016666666666666666
			],
			"type":"SCALAR"
		},
		{
			"bufferView":26,
			"componentType":5126,
			"count":2,
			"type":"VEC3"
		},
		{
			"bufferView":27,
			"componentType":5126,
			"count":2,
			"type":"VEC4"
		},
		{
			"bufferView":28,
			"componentType":5126,
			"count":2,
			"type":"VEC3"
		},
		{
			"bufferView":29,
			"componentType":5126,
			"count":2,
			"type":"VEC3"
		},
		{
			"bufferView":30,
			"componentType":5126,
			"count":130,
			"max":[
				2.1666666666666665
			],
			"min":[
				0.016666666666666666
			],
			"type":"SCALAR"
		},
		{
			"bufferView":31,
			"componentType":5126,
			"count":130,
			"type":"VEC4"
		},
		{
			"bufferView":32,
			"componentType":5126,
			"count":2,
			"type":"VEC3"
		},
		{
			"bufferView":33,
			"componentType":5126,
			"count":2,
			"type":"VEC3"
		},
		{
			"bufferView":34,
			"componentType":5126,
			"count":130,
			"type":"VEC4"
		},
		{
			"bufferView":35,
			"componentType":5126,
			"count":2,
			"type":"VEC3"
		},
		{
			"bufferView":36,
			"componentType":5126,
			"count":2,
			"type":"VEC3"
		},
		{
			"bufferView":37,
			"componentType":5126,
			"count":130,
			"type":"VEC4"
		},
		{
			"bufferView":38,
			"componentType":5126,
			"count":2,
			"type":"VEC3"
		}
	],
	"bufferViews":[
		{
			"buffer":0,
			"byteLength":19344,
			"byteOffset":0,
			"target":34962
		},
		{
			"buffer":0,
			"byteLength":19344,
			"byteOffset":19344,
			"target":34962
		},
		{
			"buffer":0,
			"byteLength":12896,
			"byteOffset":38688,
			"target":34962
		},
		{
			"buffer":0,
			"byteLength":6448,
			"byteOffset":51584,
			"target":34962
		},
		{
			"buffer":0,
			"byteLength":25792,
			"byteOffset":58032,
			"target":34962
		},
		{
			"buffer":0,
			"byteLength":11208,
			"byteOffset":83824,
			"target":34963
		},
		{
			"buffer":0,
			"byteLength":320,
			"byteOffset":95032
		},
		{
			"buffer":0,
			"byteLength":13464,
			"byteOffset":95352,
			"target":34962
		},
		{
			"buffer":0,
			"byteLength":13464,
			"byteOffset":108816,
			"target":34962
		},
		{
			"buffer":0,
			"byteLength":8976,
			"byteOffset":122280,
			"target":34962
		},
		{
			"buffer":0,
			"byteLength":4488,
			"byteOffset":131256,
			"target":34962
		},
		{
			"buffer":0,
			"byteLength":17952,
			"byteOffset":135744,
			"target":34962
		},
		{
			"buffer":0,
			"byteLength":9348,
			"byteOffset":153696,
			"target":34963
		},
		{
			"buffer":0,
			"byteLength":2292,
			"byteOffset":163044,
			"target":34962
		},
		{
			"buffer":0,
			"byteLength":2292,
			"byteOffset":165336,
			"target":34962
		},
		{
			"buffer":0,
			"byteLength":1528,
			"byteOffset":167628,
			"target":34962
		},
		{
			"buffer":0,
			"byteLength":764,
			"byteOffset":169156,
			"target":34962
		},
		{
			"buffer":0,
			"byteLength":3056,
			"byteOffset":169920,
			"target":34962
		},
		{
			"buffer":0,
			"byteLength":894,
			"byteOffset":172976,
			"target":34963
		},
		{
			"buffer":0,
			"byteLength":1824,
			"byteOffset":173872,
			"target":34962
		},
		{
			"buffer":0,
			"byteLength":1824,
			"byteOffset":175696,
			"target":34962
		},
		{
			"buffer":0,
			"byteLength":1216,
			"byteOffset":177520,
			"target":34962
		},
		{
			"buffer":0,
			"byteLength":608,
			"byteOffset":178736,
			"target":34962
		},
		{
			"buffer":0,
			"byteLength":2432,
			"byteOffset":179344,
			"target":34962
		},
		{
			"buffer":0,
			"byteLength":864,
			"byteOffset":181776,
			"target":34963
		},
		{
			"buffer":0,
			"byteLength":8,
			"byteOffset":182640
		},
		{
			"buffer":0,
			"byteLength":24,
			"byteOffset":182648
		},
		{
			"buffer":0,
			"byteLength":32,
			"byteOffset":182672
		},
		{
			"buffer":0,
			"byteLength":24,
			"byteOffset":182704
		},
		{
			"buffer":0,
			"byteLength":24,
			"byteOffset":182728
		},
		{
			"buffer":0,
			"byteLength":520,
			"byteOffset":182752
		},
		{
			"buffer":0,
			"byteLength":2080,
			"byteOffset":183272
		},
		{
			"buffer":0,
			"byteLength":24,
			"byteOffset":185352
		},
		{
			"buffer":0,
			"byteLength":24,
			"byteOffset":185376
		},
		{
			"buffer":0,
			"byteLength":2080,
			"byteOffset":185400
		},
		{
			"buffer":0,
			"byteLength":24,
			"byteOffset":187480
		},
		{
			"buffer":0,
			"byteLength":24,
			"byteOffset":187504
		},
		{
			"buffer":0,
			"byteLength":2080,
			"byteOffset":187528
		},
		{
			"buffer":0,
			"byteLength":24,
			"byteOffset":189608
		}
	],
	"samplers":[
		{
			"magFilter":9729,
			"minFilter":9987
		}
	],
	"buffers":[
		{
			"byteLength":189632,
			"uri":"SawnOff_Export.bin"
		}
	]
}
